<?xml version="1.0" encoding="utf-8"?>
<!-- Generator: Adobe Illustrator 24.1.2, SVG Export Plug-In . SVG Version: 6.00 Build 0)  -->
<svg version="1.1" id="Layer_1" xmlns="http://www.w3.org/2000/svg" xmlns:xlink="http://www.w3.org/1999/xlink" x="0px" y="0px"
	 viewBox="0 0 441.31 444.87" style="enable-background:new 0 0 441.31 444.87;" xml:space="preserve">
<polygon id="_x30_" style="opacity:0.31;fill:#FFFFFF;" points="86.69,122.21 67.02,156.27 27.7,156.27 8.03,122.21 27.7,88.16 
	67.02,88.16 "/>
<polygon id="_x31_" style="opacity:0.31;fill:#FFFFFF;" points="156.58,161.91 136.91,195.97 97.59,195.97 77.92,161.91 
	97.59,127.85 136.91,127.85 "/>
<polygon id="_x32_" style="opacity:0.31;fill:#FFFFFF;" points="86.16,202.65 66.5,236.71 27.17,236.71 7.51,202.65 27.17,168.6 
	66.5,168.6 "/>
<polygon id="_x33_" style="opacity:0.31;fill:#FFFFFF;" points="156.84,243 137.18,277.06 97.85,277.06 78.19,243 97.85,208.95 
	137.18,208.95 "/>
<polygon id="_x34_" style="opacity:0.31;fill:#FFFFFF;" points="226.47,202.65 206.8,236.71 167.48,236.71 147.81,202.65 
	167.48,168.6 206.8,168.6 "/>
<polygon id="_x35_" style="opacity:0.31;fill:#FFFFFF;" points="226.66,121.49 207,155.55 167.68,155.55 148.01,121.49 
	167.68,87.43 207,87.43 "/>
<polygon id="_x36_" style="opacity:0.31;fill:#FFFFFF;" points="156.44,81 136.78,115.06 97.45,115.06 77.79,81 97.45,46.95 
	136.78,46.95 "/>
<polygon id="_x37_" style="opacity:0.31;fill:#FFFFFF;" points="225,283.52 205.33,317.58 166.01,317.58 146.34,283.52 
	166.01,249.47 205.33,249.47 "/>
<polygon id="_x38_" style="opacity:0.31;fill:#FFFFFF;" points="294.89,323.22 275.22,357.28 235.9,357.28 216.23,323.22 
	235.9,289.16 275.22,289.16 "/>
<polygon id="_x39_" style="opacity:0.31;fill:#FFFFFF;" points="224.47,363.96 204.81,398.02 165.48,398.02 145.81,363.96 
	165.48,329.91 204.81,329.91 "/>
<polygon id="_x31_0" style="opacity:0.31;fill:#FFFFFF;" points="295.15,404.32 275.49,438.37 236.16,438.37 216.5,404.32 
	236.16,370.26 275.49,370.26 "/>
<polygon id="_x31_1" style="opacity:0.31;fill:#FFFFFF;" points="364.78,363.96 345.11,398.02 305.79,398.02 286.12,363.96 
	305.79,329.91 345.11,329.91 "/>
<polygon id="_x31_2" style="opacity:0.31;fill:#FFFFFF;" points="364.97,282.8 345.31,316.86 305.98,316.86 286.32,282.8 
	305.98,248.74 345.31,248.74 "/>
<polygon id="_x31_3" style="opacity:0.31;fill:#FFFFFF;" points="294.75,242.32 275.09,276.37 235.76,276.37 216.1,242.32 
	235.76,208.26 275.09,208.26 "/>
<polygon id="_x31_4" style="opacity:0.31;fill:#FFFFFF;" points="293.83,81.77 274.17,115.83 234.84,115.83 215.18,81.77 
	234.84,47.71 274.17,47.71 "/>
<polygon id="_x31_5" style="opacity:0.31;fill:#FFFFFF;" points="363.72,121.46 344.06,155.52 304.73,155.52 285.07,121.46 
	304.73,87.4 344.06,87.4 "/>
<polygon id="_x31_6" style="opacity:0.31;fill:#FFFFFF;" points="293.3,162.21 273.64,196.26 234.31,196.26 214.65,162.21 
	234.31,128.15 273.64,128.15 "/>
<polygon id="_x31_7" style="opacity:0.31;fill:#FFFFFF;" points="363.99,202.56 344.32,236.62 305,236.62 285.33,202.56 305,168.5 
	344.32,168.5 "/>
<polygon id="_x31_8" style="opacity:0.31;fill:#FFFFFF;" points="433.61,162.21 413.95,196.26 374.62,196.26 354.96,162.21 
	374.62,128.15 413.95,128.15 "/>
<polygon id="_x31_9" style="opacity:0.31;fill:#FFFFFF;" points="433.81,81.04 414.15,115.1 374.82,115.1 355.15,81.04 
	374.82,46.98 414.15,46.98 "/>
<polygon id="_x32_0" style="opacity:0.31;fill:#FFFFFF;" points="363.59,40.56 343.93,74.62 304.6,74.62 284.94,40.56 304.6,6.5 
	343.93,6.5 "/>
</svg>
