<?xml version="1.0" encoding="utf-8"?>
<!-- Generator: Adobe Illustrator 24.1.2, SVG Export Plug-In . SVG Version: 6.00 Build 0)  -->
<svg version="1.1" id="Layer_1" xmlns="http://www.w3.org/2000/svg" xmlns:xlink="http://www.w3.org/1999/xlink" x="0px" y="0px"
	 viewBox="0 0 64.07 64.07" style="enable-background:new 0 0 64.07 64.07;" xml:space="preserve">
<path id="Icon_metro-cross" d="M62.87,51.59L62.87,51.59L43.81,32.53l19.06-19.06l0,0c0.76-0.77,0.76-2.01,0-2.78l-9-9
	c-0.77-0.76-2.01-0.76-2.78,0l0,0L32.03,20.75L12.98,1.69l0,0c-0.77-0.76-2.01-0.76-2.78,0l-9,9c-0.76,0.77-0.76,2.01,0,2.78l0,0
	l19.05,19.06L1.2,51.59l0,0c-0.76,0.77-0.76,2.01,0,2.78l9,9c0.77,0.76,2.01,0.76,2.78,0l0,0l19.06-19.06l19.06,19.06l0,0
	c0.77,0.76,2.01,0.76,2.78,0l9-9C63.63,53.6,63.63,52.36,62.87,51.59L62.87,51.59z"/>
</svg>
