<?xml version="1.0" encoding="utf-8"?>
<!-- Generator: Adobe Illustrator 24.1.2, SVG Export Plug-In . SVG Version: 6.00 Build 0)  -->
<svg version="1.1" id="Layer_1" xmlns="http://www.w3.org/2000/svg" xmlns:xlink="http://www.w3.org/1999/xlink" x="0px" y="0px"
	 viewBox="0 0 40.33 40.33" style="enable-background:new 0 0 40.33 40.33;" xml:space="preserve">
<path id="Icon_awesome-twitter" d="M34.06,11.5c0.02,0.32,0.02,0.64,0.02,0.96c0,9.75-7.42,20.99-20.99,20.99
	c-4.02,0.01-7.95-1.14-11.33-3.31c0.59,0.07,1.19,0.1,1.78,0.09c3.32,0.01,6.55-1.1,9.16-3.15c-3.16-0.06-5.93-2.11-6.9-5.12
	c0.46,0.07,0.93,0.11,1.39,0.11c0.66,0,1.31-0.09,1.94-0.25c-3.44-0.7-5.92-3.73-5.92-7.24v-0.09c1.02,0.57,2.17,0.89,3.34,0.94
	C3.3,13.26,2.3,8.94,4.27,5.56c3.75,4.61,9.28,7.42,15.21,7.72c-0.12-0.56-0.18-1.12-0.18-1.69c0-4.08,3.31-7.38,7.39-7.38
	c2.04,0,3.98,0.85,5.38,2.33c1.65-0.32,3.24-0.92,4.68-1.78c-0.55,1.71-1.7,3.15-3.24,4.07c1.47-0.17,2.9-0.55,4.25-1.14
	C36.75,9.16,35.5,10.45,34.06,11.5z"/>
</svg>
