<?xml version="1.0" encoding="utf-8"?>
<!-- Generator: Adobe Illustrator 24.1.2, SVG Export Plug-In . SVG Version: 6.00 Build 0)  -->
<svg version="1.1" id="Layer_1" xmlns="http://www.w3.org/2000/svg" xmlns:xlink="http://www.w3.org/1999/xlink" x="0px" y="0px"
	 viewBox="0 0 63.7 58.3" style="enable-background:new 0 0 63.7 58.3;" xml:space="preserve">
<ellipse style="fill:#B72C72;" cx="31.9" cy="29.2" rx="31.9" ry="29.1"/>
<ellipse style="fill:#F72585;" cx="30.2" cy="27.4" rx="30.1" ry="27.4"/>
<path id="Icon_awesome-discord" style="fill:#F9EDF4;" d="M35.9,28c-0.1,0.8-0.8,1.5-1.6,1.4c-0.8-0.1-1.4-0.8-1.3-1.7
	c0.1-0.8,0.7-1.4,1.5-1.4C35.3,26.4,36,27.2,35.9,28C35.9,28,35.9,28,35.9,28z M29.2,26.4c-0.9,0.1-1.6,0.9-1.5,1.8
	c0.1,0.8,0.7,1.5,1.5,1.5c0.9,0,1.5-0.8,1.5-1.7c0,0,0,0,0,0C30.7,27.2,30,26.4,29.2,26.4C29.2,26.4,29.2,26.4,29.2,26.4L29.2,26.4z
	 M44.5,16.9v26.9c-3.6-3.3-2.5-2.2-6.7-6.3l0.8,2.8H22.1c-1.6,0-3-1.4-3-3.1V16.9c0-1.7,1.3-3.1,3-3.1h19.4
	C43.1,13.8,44.5,15.2,44.5,16.9z M40.3,31.1c0-3-0.8-6-2.1-8.7c-1.2-0.9-2.6-1.5-4.1-1.6L34,21c1.3,0.4,2.5,1,3.6,1.9
	c-3.3-1.9-7.3-2-10.8-0.4c-0.5,0.3-0.9,0.4-0.9,0.4c1.1-0.9,2.4-1.6,3.8-2l-0.1-0.2c-1.5,0.1-2.9,0.6-4.1,1.6
	c-1.3,2.7-2,5.7-2.1,8.7c1,1.5,2.7,2.3,4.4,2.3c0,0,0.5-0.7,1-1.2c-1-0.3-1.9-0.9-2.5-1.8c0.2,0.2,0.6,0.4,0.6,0.4
	c2.8,1.6,6.1,1.8,9,0.5c0.6-0.2,1.1-0.5,1.7-0.9c-0.6,0.9-1.6,1.5-2.6,1.8c0.4,0.6,1,1.2,1,1.2C37.6,33.4,39.3,32.6,40.3,31.1z"/>
</svg>
