<?xml version="1.0" encoding="utf-8"?>
<!-- Generator: Adobe Illustrator 24.1.2, SVG Export Plug-In . SVG Version: 6.00 Build 0)  -->
<svg version="1.1" id="Layer_1" xmlns="http://www.w3.org/2000/svg" xmlns:xlink="http://www.w3.org/1999/xlink" x="0px" y="0px"
	 viewBox="0 0 63.7 58.3" style="enable-background:new 0 0 63.7 58.3;" xml:space="preserve">
<ellipse style="fill:#B72C72;" cx="31.9" cy="29.2" rx="31.9" ry="29.1"/>
<ellipse style="fill:#F72585;" cx="30.2" cy="27.4" rx="30.1" ry="27.4"/>
<path id="Icon_awesome-twitter" style="fill:#F9EDF4;" d="M46.3,22.3c0,0.3,0,0.6,0,1c0,9.8-7.4,21-21,21c-4,0-8-1.1-11.3-3.3
	c0.6,0.1,1.2,0.1,1.8,0.1c3.3,0,6.5-1.1,9.2-3.2c-3.2-0.1-5.9-2.1-6.9-5.1c0.5,0.1,0.9,0.1,1.4,0.1c0.7,0,1.3-0.1,1.9-0.3
	c-3.4-0.7-5.9-3.7-5.9-7.2v-0.1c1,0.6,2.2,0.9,3.3,0.9c-3.3-2.2-4.3-6.5-2.3-9.9c3.7,4.6,9.3,7.4,15.2,7.7c-0.1-0.6-0.2-1.1-0.2-1.7
	c0-4.1,3.3-7.4,7.4-7.4c2,0,4,0.8,5.4,2.3c1.7-0.3,3.2-0.9,4.7-1.8c-0.6,1.7-1.7,3.2-3.2,4.1c1.5-0.2,2.9-0.6,4.2-1.1
	C49,20,47.7,21.3,46.3,22.3z"/>
</svg>
