<svg
    id="Layer_1"
    data-name="Layer 1"
    xmlns="http://www.w3.org/2000/svg"
    viewBox="0 0 63.69 58.29"
><defs><style>.cls-1{fill:#b72c72;}.cls-2{fill:#f72585;}.cls-3{fill:#f9edf4;}</style></defs><ellipse fill="#b72c72" cx="31.85" cy="29.21" rx="31.85" ry="29.08"/><ellipse fill="#f72585" cx="30.2" cy="27.36" rx="30.07" ry="27.36"/><path id="Icon_awesome-rocket" data-name="Icon awesome-rocket" fill="#f9edf4" d="M433.81,316.11a1.13,1.13,0,0,0-.86-.86,25.69,25.69,0,0,0-5.8-.48c-7.26,0-11.61,3.88-14.86,9H405a3.37,3.37,0,0,0-3,1.86l-3.47,6.95A1.69,1.69,0,0,0,400,335h7.3l-1.58,1.58a2.25,2.25,0,0,0,0,3.18h0l3.58,3.58a2.25,2.25,0,0,0,3.18,0h0l1.58-1.58v7.3a1.69,1.69,0,0,0,1.68,1.69,1.67,1.67,0,0,0,.76-.18l6.94-3.47a3.37,3.37,0,0,0,1.86-3v-7.34c5.1-3.26,9-7.62,9-14.84a24.62,24.62,0,0,0-.48-5.81Zm-8.52,10.47a2.81,2.81,0,1,1,2.82-2.81,2.81,2.81,0,0,1-2.82,2.81Z" transform="translate(-387.33 -302.14)"/></svg>
