    <svg xmlns="http://www.w3.org/2000/svg" viewBox="0 0 987.64 903.63">
        <defs>
            <style>
                .cls-1 {
                    fill: #1b016c;
                }
                .cls-2 {
                    fill: #71147c;
                }
                .cls-3 {
                    fill: #d03f68;
                }
                .cls-4 {
                    fill: none;
                    stroke: #1d006c;
                    stroke-linecap: round;
                    stroke-miterlimit: 10;
                    stroke-width: 45px;
                }
                .cls-5 {
                    fill: #f48a34;
                }
                .cls-6 {
                    fill: #f9f5e1;
                }
                .cls-7 {
                    fill: #fae13c;
                }
                .cls-8 {
                    opacity: 0.35;
                }
            </style>
        </defs>
        <g id="Layer_1" data-name="Layer 1">
            <path
                fill="#1b016c"
                d="M419.39,894c8-4.86,29.34-17.89,29.65-35.88.39-22.36-30.64-47.47-52.34-48.15-17.29-.53-41.15-1.9-69.35-5.52-24.74-3.18-74.18-9.53-123.74-27.23-47.14-16.83-105.21-37.57-147-92.73-46.89-61.9-47.4-133-45.68-163.05,7.27,29.18,23,75.24,59.75,119.25,54.16,64.9,121.56,86.53,172,102.71,94,30.17,178.28,25.08,232.15,16,35.27-6,109.77-19.4,187.71-73.33,32.78-22.68,106.32-75,146.48-175,13.54-33.68,47.48-118.12,16.87-213C794.81,201.67,716.69,154.8,653,116.57,618.66,96,488.7,23.49,372,60.67c-14.52,4.63-55.5,17.68-55.8,37.37-.22,14.82,22.69,30.26,55.87,39.33,39.37-.2,104.57,5.38,172.52,41.58,35.59,19,81.35,43.33,109.68,96.59,39.14,73.55,17.11,149.74,10.72,169.54.19-23.07-2.76-63.9-25.94-105.77-7-12.68-28.66-48.5-94.11-88.66-75.31-46.21-152.08-63.45-209-69.76-73.38-8.15-180.3-20-279.12,42C-3.91,260.92-35.61,310.6-77.93,376.93-121.68,445.49-147,485.26-149.2,542.72c-3.52,94,57.82,164.26,90.09,201.21C4.28,816.52,75,844.93,140.51,871.3,166.89,881.9,332.81,946.75,419.39,894Z"
                transform="translate(149.34 -10.79)"
            />
            <path
                fill="#71147c"
                d="M707.77,196.25c3.59-10.81,10.66-31.33,23.74-33.23,14.9-2.17,29.19,12,29.67,34,.3,13.82,5.08,43.35,0,64.88-16.62,70.42-33.25,111.37-36.4,121.85-8.69,28.94-24.53,63.3-52.22,113.14-12.24,22-44.57,72.71-108.4,114.73-67.73,44.59-123.87,59.25-176.43,66.46-46.11,6.32-119,7.19-205.72-23-40.69-14.13-71.42-23.15-93.36-68-15.94-32.6-18.93-57.91-15.83-79.91,10.51-74.36,58.39-122.41,79.52-143.61C203.75,312,258.94,292.17,296,279.33,337.42,264.94,386.22,248,449,258c52.91,8.39,91.51,32,112.75,47.47-11.95-18.29-33.92-46.08-70-65.28C457.55,222,427.84,220.63,373.09,218.8c-63-2.1-103.48-3.45-154.29,15.43-12.61,4.69-58.87,22.89-104.44,66.46a313.6,313.6,0,0,0-61.71,81.89c-11.34,22.06-49,98-28.49,192.27,6.25,28.75,13.08,60.2,38,90.19,42,50.64,90.29,42.59,160.22,108,18.78,17.57,43.51,41.18,36.79,58.16-7.87,19.9-53.92,18.06-59.34,17.8q-31.89-9.91-64.08-20.18C58.69,804.25,46.34,804,30.1,794.41c-36.66-21.55-48.29-59.28-70-122.25C-49.3,645-65.51,596.65-64.85,530.93c.33-31.68,1.39-83.34,28.49-141.23,23.31-49.8,54.2-79.24,81.89-105.62s75-70.56,150.72-97.32c65.09-23,118.6-21.62,174.46-20.18,60.08,1.56,95.9,2.48,138.86,21.37,20.62,9.06,114.63,50.38,125.8,132.92,8.21,60.57-32.78,109.51-59.34,141.23-48.78,58.26-107.14,80.2-149.54,96.13-48.14,18.1-116.63,43.84-187.51,16.62a183.89,183.89,0,0,1-41.54-22.55L252,596.21a285.11,285.11,0,0,0,39.17,10.68c68.87,13.59,124.91-2,150.72-9.49,29.05-8.44,80.45-24,128.18-67.65,55.74-51,76.3-112.78,84.26-137.67C668.6,347.54,680.53,278.26,707.77,196.25Z"
                transform="translate(149.34 -10.79)"
            />
            <path
                fill="#d03f68"
                d="M593.84,212.87a189.6,189.6,0,0,1,41.53,46.28,206,206,0,0,1,19.39,37.19c14,35.33,14.77,65.76,14.24,84.66-.68,24.27-1.48,53-13.45,85.45-22.31,60.52-68.61,93.84-89.41,108.4C497.35,623,426.68,624.93,348.56,627.07c-48.4,1.32-98.95-3.18-150.33-25.32-47.24-20.36-59.68-40.33-64.88-52.22-12.85-29.41-3.16-59.14,0-68.84,9.66-29.64,28.87-46.69,53.8-68.83a304.39,304.39,0,0,1,69.63-46.68c41.44-19.76,79.19-25.6,113.14-30.86,39.54-6.12,65.49-6,65.67-10.29s-27.41-9.58-46.68-11.87c-20.63-2.44-70.15-7.73-130.55,11.87C203,342,169.05,371,129.4,404.74,70.55,454.87,38.6,502.79,28.91,517.88c-34,52.93-51,79.39-48.66,115.12,3.72,57.7,53,106.76,94.55,129.36,33,17.95,62.72,20.1,62.11,28.49-.66,9-36.17,18.18-68.83,14.24-53.93-6.51-90.62-39.65-108-55.78-27.56-25.56-37.94-51.63-43.92-93.76-4.65-32.83-8.64-63.43,21.37-122.24A492.45,492.45,0,0,1,.43,439.55c17.3-20.38,32.2-34.56,48.26-49.85,20-19.07,42.8-40.73,74-62.9,22.78-16.19,54.82-39.06,102.07-55.78,44.15-15.63,79-18.26,119.86-21.36,32.33-2.45,61.56-4.46,99.7,2.37,29.22,5.24,53.9,9.67,79.51,28.49,11.61,8.52,40.13,30.15,49.85,70,8.13,33.33-1.86,61.42-5.93,72.39C530.4,523.41,389.79,552.71,394.45,566.54c3.33,9.88,79,6.78,138.86-38,42.89-32.09,61.22-73.35,67.65-90.2,5.72-15,15.45-41.37,13-75.95-4.29-61.9-44.19-103.15-55.78-115.12-19.44-20.1-41.93-35.61-41.93-35.61C489,192.87,470.38,187.42,471.59,182c1.43-6.36,29.09-7.29,52.62-2.77C559.38,186,583.31,204.53,593.84,212.87Z"
                transform="translate(149.34 -10.79)"
            />
            <path class="cls-4" d="M100.12,218.8" transform="translate(149.34 -10.79)" />
            <path
                fill="#f48a34"
                d="M450.86,502.76c52.41-39.42,79.73-98.45,70.65-154.47-1.51-9.35-7.82-45.17-37-72.89-64.46-61.25-179.7-25.1-208-16.22C187.92,287,131.81,346.56,80.94,400.61,45.08,438.7-4.93,473.64,4.43,497a25.28,25.28,0,0,0,15.7,14c12.49,3.53,28.05-4.75,40-21a820.75,820.75,0,0,1,74.4-82.13c27.84-26.86,51.87-50,87.64-72.9,33.79-21.6,96.86-61.91,172.29-53.14,20.77,2.42,50.68,6.35,68.25,30.75,14.9,20.7,13.12,45.28,11.74,55.57a137,137,0,0,0-45.52-21.69c-45.61-11.95-84,4.17-104.22,12.67-22.07,9.28-88.24,33.39-115.14,82.92-9.94,18.29-11,38.49-5.21,58.66,7.51,26.1,20.93,44.51,54.91,57.51,60.92,23.32,140.74,15.28,150.25,15.33,30.76.18,120.53.71,196-54.78,28.39-20.86,40.6-39.25,65-76,4.16-6.27,12.46-19.31,11.18-35.82-.69-9-4.5-22.51-11.13-23.53-8.84-1.36-17.65,20.27-27.75,38.51,0,0-33,68.15-100.17,86.59-64,17.57-119.92,16.48-155.39,19.58C404.63,526.59,429.29,512.67,450.86,502.76Z"
                transform="translate(149.34 -10.79)"
            />
            <path
                fill="#1b016c"
                d="M87.57,32.89c-13.2,5.72-50,24.36-81.77,36a69.8,69.8,0,0,0-8.42,3.71c-21.84,11.38-39.81,35.2-35.08,44.91,4.54,9.31,31.18,8.24,64.24-1.79,49.22-24.89,88-27.85,113.72-26.26,51.19,3.17,76.56,26,117.2,11.69,22.22-7.79,51-27.35,49.29-48.19C305.17,33,276,12.94,233.61,10.79,150.59,13,109.64,23.3,87.57,32.89Z"
                transform="translate(149.34 -10.79)"
            />
            <ellipse
                fill="#d03f68"
                cx="456.96"
                cy="146.01"
                rx="11.47"
                ry="28.88"
                transform="translate(347.09 538.88) rotate(-75.01)"
            />
            <ellipse
                fill="#71147c"
                cx="726.18"
                cy="114.34"
                rx="20.44"
                ry="36.97"
                transform="translate(156.18 255.09) rotate(-20.84)"
            />
            <ellipse
                fill="#71147c"
                cx="689.97"
                cy="55.02"
                rx="12.54"
                ry="20.44"
                transform="translate(174.92 238.32) rotate(-20.84)"
            />
            <ellipse
                fill="#71147c"
                cx="309.02"
                cy="847.5"
                rx="17.26"
                ry="35.07"
                transform="translate(-426.47 1012.27) rotate(-81.19)"
            />
            <ellipse
                fill="#71147c"
                cx="371"
                cy="854.36"
                rx="11.46"
                ry="14.88"
                transform="translate(-380.76 1079.33) rotate(-81.19)"
            />
            <ellipse fill="#d03f68" cx="560.8" cy="119" rx="7.12" ry="3.96" />
            <ellipse fill="#d03f68" cx="548.54" cy="130.87" rx="3.56" ry="4.75" />
            <ellipse fill="#d03f68" cx="520.85" cy="120.58" rx="4.35" ry="3.96" />
            <ellipse fill="#d03f68" cx="318.3" cy="793.11" rx="21.76" ry="4.75" />
            <ellipse fill="#d03f68" cx="318.3" cy="781.64" rx="2.77" ry="3.56" />
            <ellipse fill="#d03f68" cx="319.09" cy="731.4" rx="2.77" ry="3.56" />
            <ellipse fill="#d03f68" cx="281.11" cy="686.3" rx="2.77" ry="3.56" />
            <ellipse fill="#d03f68" cx="288.23" cy="637.64" rx="2.77" ry="3.56" />
            <ellipse fill="#d03f68" cx="210.69" cy="541.9" rx="2.77" ry="3.56" />
            <ellipse fill="#d03f68" cx="257.77" cy="493.64" rx="2.77" ry="3.56" />
            <ellipse fill="#d03f68" cx="266.47" cy="564.85" rx="2.77" ry="3.56" />
            <ellipse fill="#d03f68" cx="421.16" cy="706.47" rx="2.77" ry="3.56" />
            <ellipse fill="#d03f68" cx="388.72" cy="775.31" rx="6.73" ry="3.56" />
            <ellipse fill="#d03f68" cx="372.89" cy="784.8" rx="1.98" ry="3.56" />
            <ellipse fill="#d03f68" cx="356.28" cy="810.91" rx="4.75" ry="5.93" />
            <ellipse fill="#d03f68" cx="335.31" cy="676.8" rx="4.75" ry="5.93" />
            <ellipse fill="#d03f68" cx="471" cy="698.96" rx="4.75" ry="5.93" />
            <ellipse fill="#d03f68" cx="217.02" cy="591.35" rx="4.75" ry="5.93" />
            <ellipse fill="#d03f68" cx="544.58" cy="758.3" rx="4.75" ry="5.93" />
            <ellipse fill="#d03f68" cx="350.34" cy="778.47" rx="11.47" ry="3.96" />
            <ellipse fill="#d03f68" cx="586.52" cy="314.43" rx="8.31" ry="7.91" />
            <circle fill="#f9f5e1" cx="680.28" cy="384.05" r="6.33" />
            <circle fill="#f9f5e1" cx="656.54" cy="397.9" r="6.33" />
            <circle fill="#f9f5e1" cx="559.22" cy="284.36" r="6.33" />
            <circle fill="#f9f5e1" cx="534.3" cy="506.3" r="6.33" />
            <circle fill="#f9f5e1" cx="404.94" cy="522.91" r="6.33" />
            <circle fill="#f9f5e1" cx="406.12" cy="522.91" r="6.33" />
            <circle fill="#f9f5e1" cx="373.68" cy="455.26" r="6.33" />
            <circle fill="#f9f5e1" cx="421.55" cy="342.52" r="6.33" />
            <circle fill="#f9f5e1" cx="308.41" cy="377.72" r="6.33" />
            <circle fill="#fae13c" cx="320.28" cy="496.41" r="6.33" />
            <circle fill="#fae13c" cx="372.5" cy="560.49" r="6.33" />
            <circle fill="#fae13c" cx="642.3" cy="440.23" r="6.33" />
            <circle fill="#fae13c" cx="650.21" cy="304.14" r="6.33" />
            <circle fill="#fae13c" cx="546.56" cy="259.04" r="6.33" />
            <circle fill="#fae13c" cx="548.14" cy="220.27" r="6.33" />
            <circle fill="#fae13c" cx="869.38" cy="291.48" r="6.33" />
            <circle fill="#fae13c" cx="704.28" cy="499.31" r="6.33" />
            <circle fill="#fae13c" cx="533.38" cy="588.71" r="6.33" />
            <circle fill="#fae13c" cx="333.2" cy="317.33" r="6.33" />
            <ellipse fill="#f9f5e1" cx="633.2" cy="380.3" rx="3.16" ry="3.76" />
            <ellipse fill="#fae13c" cx="857.9" cy="308.89" rx="3.16" ry="3.76" />
            <ellipse fill="#fae13c" cx="357.46" cy="381.68" rx="3.16" ry="3.76" />
            <ellipse fill="#fae13c" cx="356.67" cy="559.7" rx="3.16" ry="3.76" />
            <ellipse fill="#fae13c" cx="309.99" cy="471.09" rx="3.16" ry="3.76" />
            <ellipse fill="#fae13c" cx="431.84" cy="283.57" rx="3.16" ry="3.76" />
            <ellipse fill="#fae13c" cx="558.43" cy="539.92" rx="3.16" ry="3.76" />
            <ellipse fill="#fae13c" cx="857.51" cy="283.57" rx="3.16" ry="3.76" />
            <ellipse fill="#f9f5e1" cx="524.41" cy="273.29" rx="3.16" ry="3.76" />
            <ellipse fill="#f9f5e1" cx="529.65" cy="251.23" rx="3.16" ry="3.76" />
            <ellipse fill="#f9f5e1" cx="524.41" cy="239.76" rx="3.16" ry="3.76" />
            <ellipse fill="#f9f5e1" cx="533.8" cy="231.55" rx="3.16" ry="3.76" />
            <ellipse fill="#f9f5e1" cx="589.29" cy="303.35" rx="3.16" ry="3.76" />
            <ellipse fill="#f9f5e1" cx="390.3" cy="405.61" rx="3.16" ry="3.76" />
            <ellipse fill="#f9f5e1" cx="422.34" cy="377.72" rx="3.16" ry="3.76" />
            <ellipse fill="#f9f5e1" cx="447.27" cy="349.24" rx="3.16" ry="3.76" />
            <ellipse fill="#f9f5e1" cx="447.27" cy="349.24" rx="3.16" ry="3.76" />
            <ellipse fill="#f9f5e1" cx="409.29" cy="353.99" rx="3.16" ry="3.76" />
            <ellipse fill="#f9f5e1" cx="334.12" cy="370.6" rx="3.16" ry="3.76" />
            <ellipse fill="#d03f68" cx="361.68" cy="319.18" rx="3.16" ry="3.76" />
            <ellipse
                fill="#d03f68"
                cx="177"
                cy="278.8"
                rx="3.16"
                ry="3.76"
                transform="translate(-2.02 232.88) rotate(-51.48)"
            />
            <ellipse
                fill="#d03f68"
                cx="344.74"
                cy="217.09"
                rx="3.16"
                ry="3.76"
                transform="translate(109.54 340.84) rotate(-51.48)"
            />
            <ellipse
                fill="#d03f68"
                cx="560.47"
                cy="602.67"
                rx="3.16"
                ry="3.76"
                transform="translate(-110.76 655.1) rotate(-51.48)"
            />
            <ellipse
                fill="#d03f68"
                cx="597.4"
                cy="647.51"
                rx="3.16"
                ry="3.76"
                transform="translate(-131.91 700.9) rotate(-51.48)"
            />
            <ellipse
                fill="#d03f68"
                cx="660.82"
                cy="633.13"
                rx="3.16"
                ry="3.76"
                transform="translate(-96.74 745.1) rotate(-51.48)"
            />
            <ellipse
                fill="#d03f68"
                cx="439.68"
                cy="203.24"
                rx="3.16"
                ry="3.76"
                transform="translate(156.19 409.9) rotate(-51.48)"
            />
            <ellipse
                fill="#d03f68"
                cx="328.12"
                cy="175.15"
                rx="3.16"
                ry="3.76"
                transform="translate(136.08 312.02) rotate(-51.48)"
            />
            <ellipse
                fill="#d03f68"
                cx="326.14"
                cy="147.07"
                rx="3.16"
                ry="3.76"
                transform="translate(157.31 299.87) rotate(-51.48)"
            />
            <ellipse fill="#f9f5e1" cx="286.65" cy="416.1" rx="3.16" ry="3.76" />
            <ellipse fill="#f9f5e1" cx="261.73" cy="376.54" rx="3.16" ry="3.76" />
            <ellipse
                fill="#f48a34"
                cx="686.87"
                cy="348.96"
                rx="26.11"
                ry="12.46"
                transform="translate(248.66 836.5) rotate(-67.24)"
            />
            <ellipse fill="#f48a34" cx="852.69" cy="301.11" rx="8.9" ry="5.93" />
            <ellipse fill="#f48a34" cx="855.93" cy="270.65" rx="1.78" ry="7.71" />
            <ellipse fill="#f48a34" cx="848.47" cy="283.9" rx="2.97" ry="6.53" />
            <ellipse
                fill="#d03f68"
                cx="834.76"
                cy="424.71"
                rx="3.16"
                ry="3.76"
                transform="translate(131.95 802.57) rotate(-51.48)"
            />
        </g>
        <g id="Layer_3" data-name="Layer 3">
            <ellipse
                fill="#fae13c"
                cx="355.15"
                cy="445.68"
                rx="122.46"
                ry="60.41"
                transform="translate(-3.56 176.73) rotate(-24.51)"
            />
            <ellipse
                fill="#f9f5e1"
                cx="358.85"
                cy="444.1"
                rx="91.75"
                ry="45.26"
                transform="translate(-2.57 178.12) rotate(-24.51)"
            />
            <g class="cls-8">
                <path
                    fill="#f9f5e1"
                    d="M274,475.45a23.38,23.38,0,0,0,1.84,6.35c4.43,9.71,15.32,15.51,29.91,17.36C292.5,494.4,281.4,486.37,274,475.45Z"
                    transform="translate(149.34 -10.79)"
                />
                <path
                    fill="#f9f5e1"
                    d="M436.71,439c7.83-12,10.4-23.76,6.05-33.29a23.27,23.27,0,0,0-3.19-5.07C442.69,413,441.51,426.25,436.71,439Z"
                    transform="translate(149.34 -10.79)"
                />
                <path
                    fill="#f9f5e1"
                    d="M340.5,402.55c42.4-19.33,84.5-19.69,99.07-1.95a56.71,56.71,0,0,0-3.36-9.6c-16.33-35.8-66.94-47.78-113-26.75s-70.25,67.09-53.92,102.88a56,56,0,0,0,4.71,8.32C270.72,452.86,298.5,421.71,340.5,402.55Z"
                    transform="translate(149.34 -10.79)"
                />
                <path
                    fill="#f9f5e1"
                    d="M378.06,484.92c-26.43,12.05-52.75,16.72-72.36,14.24,22.11,8,50.08,6.8,76.58-5.28C409,481.7,428.34,461.1,436.71,439,425.84,455.61,404.85,472.7,378.06,484.92Z"
                    transform="translate(149.34 -10.79)"
                />
            </g>
        </g>
    </svg>
