<svg id="Layer_1" data-name="Layer 1" xmlns="http://www.w3.org/2000/svg" viewBox="0 0 63.69 58.29"><defs><style>.cls-1{fill:#b72c72;}.cls-2{fill:#f72585;}.cls-3{fill:#f9edf4;}</style></defs><ellipse fill="#b72c72" cx="31.85" cy="29.21" rx="31.85" ry="29.08"/><ellipse fill="#f72585" cx="30.2" cy="27.36" rx="30.07" ry="27.36"/><path id="Icon_simple-openstreetmap" data-name="Icon simple-openstreetmap" fill="#f9edf4" d="M406.45,348c-.53-.14-.8-.36-2.21-1.76-1.67-1.66-1.78-1.83-1.77-2.7s-.3-.62,5-6,5.12-5.18,6.1-5.18a1.6,1.6,0,0,1,.93.21l.41.21,2.62-2.61-.33-.52a12.75,12.75,0,0,1-1.51-3.64,11.49,11.49,0,1,1,22.44-5c.06.3.12.6.16.91a16.16,16.16,0,0,1,0,3.11,11.38,11.38,0,0,1-3.31,6.6,10.06,10.06,0,0,1-2.91,2.1,11.08,11.08,0,0,1-4.32,1.2,11.62,11.62,0,0,1-7-1.74l-.51-.32-2.62,2.61.21.42a1.52,1.52,0,0,1,.21.93c0,1,.24.7-5.14,6.07-4.14,4.14-4.78,4.75-5.1,4.89a2.36,2.36,0,0,1-1.41.16Zm22.22-15a9.6,9.6,0,0,0,3.56-17.43,10.58,10.58,0,0,0-3.55-1.44,11.88,11.88,0,0,0-3.62,0,10,10,0,0,0-3.68,1.6,11.77,11.77,0,0,0-2.23,2.23,9.59,9.59,0,0,0,6.42,15.06,11.91,11.91,0,0,0,3.1-.05Zm-5.61,11.06c-1.1-.31-2.2-.63-3.29-1,0,0,1.81-6.6,1.88-6.68s6.36,1.73,6.62,1.86c.09,0,0,.43-.79,3.15-.32,1.12-.63,2.24-1,3.35,0,.14-.1.24-.14.24s-1.55-.43-3.33-.95Zm4.37.79c0-.08,1.84-6.5,1.87-6.52s6.48-1.85,6.51-1.82S434,343,434,343.05s-6.19,1.79-6.39,1.83-.14,0-.14,0ZM416.77,342c1.27-1.28,2.4-2.44,2.51-2.59a5,5,0,0,0,.71-1.52,5.18,5.18,0,0,0,.09-.78v-.47l.28-.07a.73.73,0,0,1,.3-.05S418.86,343,418.8,343s-1,.32-2.2.65l-2.14.61,2.31-2.31Zm12.43-4.59-.09-.28-.06-.24.23,0a13.86,13.86,0,0,0,5.86-2.57c.24-.18.38-.25.4-.2.09.25.41,1.43.4,1.44s-6.72,1.92-6.73,1.89Zm-22.62-1.95c-.08-.06-1.77-5.8-1.9-6.43,0-.13.22-.07,3.26.8s3.29.94,3.33,1.11,0,.19-.18.33-1.15,1.09-2.29,2.22c-.68.7-1.37,1.38-2.08,2a.29.29,0,0,1-.14-.08Zm1.23-6.57-3.25-.93s1.89-6.65,1.93-6.69,6.63,1.81,6.7,1.87-.4,1.53-.93,3.36c-.86,3-1,3.34-1.08,3.33s-1.59-.43-3.38-.94Zm4.44.81s.32-1.08.66-2.3l.63-2.21.09.48a15.71,15.71,0,0,0,.7,2.61,7.73,7.73,0,0,1,.27.82l-1.08.31-1.18.34c-.09,0-.11,0-.09-.05Zm-2.45-8.44c-1.78-.51-3.25-.95-3.27-1s-1.87-6.48-1.85-6.51,6.47,1.81,6.53,1.87,1.92,6.57,1.87,6.57l-3.28-.95Zm3.22-2.57-.78-2.71-.12-.42,2.54-.72,2.64-.76c.06,0-.12.21-.39.5a13.12,13.12,0,0,0-2.94,5.36,7.35,7.35,0,0,0-.2.84c0,.44-.17,0-.75-2.09Z" transform="translate(-387.33 -302.14)"/></svg>
